<svg width="108" height="24" viewBox="0 0 108 24" fill="none" xmlns="http://www.w3.org/2000/svg">
<path d="M46.9993 0H50.9162L50.8233 3.81982L47.0932 1.93127L46.9993 0Z" fill="#272F42"/>
<path d="M47.1449 5.59392L50.8245 3.81396V19.0043H47.1449V5.59392Z" fill="#272F42"/>
<path d="M85.5952 0H89.5122L89.4193 3.81982L85.6927 1.93589L85.5952 0Z" fill="#272F42"/>
<path d="M85.7396 5.59392L89.4194 3.81396V19.0043H85.7396V5.59392Z" fill="#272F42"/>
<path d="M55.2044 3.81982H58.7935V6.37369C59.0827 5.51268 59.647 4.77258 60.3979 4.26915C60.9671 3.87283 61.6229 3.62102 62.3095 3.53514C62.996 3.44927 63.6931 3.53187 64.3412 3.77593C64.8173 3.95066 65.2481 4.23138 65.6017 4.59719L63.9274 7.63733C63.4437 7.30244 62.871 7.12248 62.2841 7.12101C59.896 7.12101 58.7706 9.27175 58.7706 12.5937V19.009H55.2113L55.2044 3.81982Z" fill="#272F42"/>
<path d="M67.7573 3.81872H71.4381V5.58136C71.9832 4.90341 72.6809 4.36643 73.4734 4.01508C74.2234 3.67837 75.0347 3.50254 75.8558 3.49876C76.9123 3.44431 77.9587 3.72925 78.8442 4.31254C79.7298 4.89583 80.4086 5.74738 80.7833 6.74452C81.1759 7.74268 81.3733 8.80796 81.3644 9.88167V19.0067H77.6847V10.3599C77.7261 9.46869 77.4597 8.59062 76.9307 7.87532C76.6756 7.55902 76.35 7.30794 75.9804 7.14254C75.6108 6.97714 75.2077 6.90211 74.8038 6.92355C74.3496 6.8964 73.8946 6.96449 73.4678 7.12354C73.0409 7.28259 72.6514 7.52913 72.3239 7.84759C71.673 8.64592 71.3565 9.66854 71.4415 10.6983V19.0148H67.7619L67.7573 3.81872Z" fill="#272F42"/>
<path d="M93.4486 3.81978H97.2474V5.33984C97.749 4.72118 98.4007 4.24371 99.1394 3.95376C99.9054 3.64842 100.722 3.49355 101.546 3.4975C102.79 3.46528 104.011 3.84416 105.022 4.57634C106.007 5.31546 106.773 6.31148 107.238 7.45709C108.254 9.9923 108.254 12.826 107.238 15.3612C106.772 16.5084 106 17.5028 105.007 18.2339C103.978 18.9639 102.743 19.3398 101.485 19.3058C100.67 19.3136 99.8618 19.1642 99.1027 18.8657C98.3753 18.5751 97.7364 18.0972 97.2498 17.4796V23.9977H93.4497L93.4486 3.81978ZM103.363 14.6774C104.016 13.7153 104.341 12.5659 104.29 11.4016C104.345 10.2482 104.023 9.1086 103.374 8.15704C103.051 7.73954 102.631 7.40832 102.152 7.19243C101.672 6.97654 101.147 6.88258 100.623 6.91882C100.097 6.88529 99.5712 6.98036 99.0896 7.19596C98.6079 7.41155 98.1852 7.74127 97.8572 8.15704C97.2149 9.11309 96.8847 10.2474 96.9128 11.4016C96.8857 12.568 97.2155 13.7145 97.8572 14.6855C98.1814 15.1071 98.6028 15.4424 99.085 15.6622C99.5671 15.8821 100.095 15.9798 100.623 15.9468C101.148 15.9793 101.673 15.8802 102.15 15.6585C102.628 15.4368 103.043 15.0993 103.36 14.6763L103.363 14.6774Z" fill="#272F42"/>
<path d="M38.9649 3.81979V5.33985C38.463 4.72099 37.8109 4.2435 37.0718 3.95377C36.3058 3.64832 35.489 3.49344 34.6653 3.49751C33.421 3.4652 32.2004 3.84409 31.1896 4.57635C30.2042 5.31531 29.4374 6.31135 28.9721 7.4571C27.957 9.99245 27.957 12.8259 28.9721 15.3612C29.4382 16.5085 30.211 17.503 31.2045 18.2339C32.2333 18.9639 33.4683 19.3399 34.726 19.3058C35.5414 19.3215 36.3516 19.1718 37.1084 18.8657C38.0464 18.4565 38.8708 17.822 39.5093 17.0176L39.7327 19.0135H42.7638V3.81979H38.9649ZM35.5866 15.948C35.0617 15.9805 34.5369 15.8815 34.0592 15.6598C33.5814 15.4381 33.1658 15.1006 32.849 14.6774C32.1964 13.7154 31.871 12.5659 31.9218 11.4016C31.8672 10.2482 32.1892 9.10843 32.8386 8.15705C33.1615 7.73955 33.5812 7.40833 34.0607 7.19244C34.5402 6.97655 35.065 6.88259 35.589 6.91883C36.1151 6.88511 36.6415 6.9801 37.1234 7.1957C37.6053 7.4113 38.0283 7.74111 38.3564 8.15705C38.9998 9.11275 39.3315 10.247 39.3052 11.4016C39.3304 12.5681 38.9992 13.7141 38.3564 14.6843C38.0321 15.1067 37.6104 15.4427 37.1279 15.6631C36.6453 15.8836 36.1167 15.9818 35.5879 15.9491L35.5866 15.948Z" fill="#272F42"/>
<path d="M0 19.3105V3.49878H15.1736L7.69173 18.5562L0 19.3105Z" fill="#005CFF"/>
<path d="M22.761 19.3105V3.49878H3.26373C7.98051 3.49878 9.92169 8.52332 11.3427 11.2447C12.6846 13.8181 15.0705 18.5585 15.0705 18.5585L22.761 19.3105Z" fill="#00BFFF"/>
<path d="M3.26373 3.49878C3.26373 3.49878 7.98047 3.49878 9.23988 15.4433L11.3404 11.2447C9.92174 8.51985 7.98051 3.49878 3.26373 3.49878Z" fill="#0B44B5"/>
</svg>
